%
M48
M72
T01C0.03200
T02C0.04000
T03C0.04094
T04C0.06299
T05C0.09843
T06C0.11024
T07C0.13780
%
T01
X116000Y234000
X116000Y248000
X196000Y248000
X196000Y234000
X276000Y234000
X276000Y248000
X356000Y248000
X356000Y234000
X436000Y234000
X436000Y248000
X516000Y248000
X516000Y234000
X596000Y234000
X596000Y248000
T02
X46000Y306236
X46000Y316079
X46000Y325921
X46000Y335764
T03
X71000Y336000
X81000Y336000
X81000Y326000
X71000Y326000
X71000Y316000
X81000Y316000
X81000Y306000
X71000Y306000
X71000Y296000
X81000Y296000
X81000Y286000
X71000Y286000
X71000Y276000
X81000Y276000
X81000Y266000
X71000Y266000
X71000Y256000
X81000Y256000
X81000Y246000
X71000Y246000
X71000Y236000
X81000Y236000
X81000Y226000
X71000Y226000
X71000Y216000
X81000Y216000
X81000Y206000
X71000Y206000
X71000Y196000
X81000Y196000
X81000Y186000
X71000Y186000
X71000Y176000
X81000Y176000
X81000Y166000
X71000Y166000
X71000Y156000
X81000Y156000
X81000Y146000
X71000Y146000
X71000Y136000
X81000Y136000
X81000Y126000
X71000Y126000
X71000Y116000
X81000Y116000
X81000Y106000
X71000Y106000
X71000Y96000
X81000Y96000
X151000Y96000
X161000Y96000
X161000Y106000
X151000Y106000
X151000Y116000
X161000Y116000
X161000Y126000
X151000Y126000
X151000Y136000
X161000Y136000
X161000Y146000
X151000Y146000
X151000Y156000
X161000Y156000
X161000Y166000
X151000Y166000
X151000Y176000
X161000Y176000
X161000Y186000
X151000Y186000
X151000Y196000
X161000Y196000
X161000Y206000
X151000Y206000
X151000Y216000
X161000Y216000
X161000Y226000
X151000Y226000
X151000Y236000
X161000Y236000
X161000Y246000
X151000Y246000
X151000Y256000
X161000Y256000
X161000Y266000
X151000Y266000
X151000Y276000
X161000Y276000
X161000Y286000
X151000Y286000
X151000Y296000
X161000Y296000
X161000Y306000
X151000Y306000
X151000Y316000
X161000Y316000
X161000Y326000
X151000Y326000
X151000Y336000
X161000Y336000
X231000Y336000
X231000Y326000
X241000Y326000
X241000Y336000
X241000Y316000
X241000Y306000
X231000Y306000
X231000Y316000
X231000Y296000
X231000Y286000
X241000Y286000
X241000Y296000
X241000Y276000
X241000Y266000
X231000Y266000
X231000Y276000
X231000Y256000
X241000Y256000
X241000Y246000
X241000Y236000
X231000Y236000
X231000Y246000
X231000Y226000
X231000Y216000
X241000Y216000
X241000Y226000
X241000Y206000
X241000Y196000
X231000Y196000
X231000Y206000
X231000Y186000
X231000Y176000
X241000Y176000
X241000Y186000
X241000Y166000
X231000Y166000
X231000Y156000
X231000Y146000
X241000Y146000
X241000Y156000
X241000Y136000
X241000Y126000
X231000Y126000
X231000Y136000
X231000Y116000
X231000Y106000
X241000Y106000
X241000Y116000
X241000Y96000
X231000Y96000
X311000Y96000
X321000Y96000
X321000Y106000
X311000Y106000
X311000Y116000
X321000Y116000
X321000Y126000
X311000Y126000
X311000Y136000
X321000Y136000
X321000Y146000
X311000Y146000
X311000Y156000
X321000Y156000
X321000Y166000
X311000Y166000
X311000Y176000
X321000Y176000
X321000Y186000
X311000Y186000
X311000Y196000
X321000Y196000
X321000Y206000
X311000Y206000
X311000Y216000
X321000Y216000
X321000Y226000
X311000Y226000
X311000Y236000
X321000Y236000
X321000Y246000
X311000Y246000
X311000Y256000
X321000Y256000
X321000Y266000
X311000Y266000
X311000Y276000
X321000Y276000
X321000Y286000
X311000Y286000
X311000Y296000
X321000Y296000
X321000Y306000
X311000Y306000
X311000Y316000
X321000Y316000
X321000Y326000
X311000Y326000
X311000Y336000
X321000Y336000
X391000Y336000
X401000Y336000
X401000Y326000
X391000Y326000
X391000Y316000
X401000Y316000
X401000Y306000
X391000Y306000
X391000Y296000
X401000Y296000
X401000Y286000
X391000Y286000
X391000Y276000
X401000Y276000
X401000Y266000
X391000Y266000
X391000Y256000
X401000Y256000
X401000Y246000
X391000Y246000
X391000Y236000
X401000Y236000
X401000Y226000
X391000Y226000
X391000Y216000
X401000Y216000
X401000Y206000
X391000Y206000
X391000Y196000
X401000Y196000
X401000Y186000
X391000Y186000
X391000Y176000
X401000Y176000
X401000Y166000
X391000Y166000
X391000Y156000
X401000Y156000
X401000Y146000
X391000Y146000
X391000Y136000
X401000Y136000
X401000Y126000
X391000Y126000
X391000Y116000
X401000Y116000
X401000Y106000
X391000Y106000
X391000Y96000
X401000Y96000
X471000Y96000
X481000Y96000
X481000Y106000
X481000Y116000
X471000Y116000
X471000Y106000
X471000Y126000
X471000Y136000
X481000Y136000
X481000Y126000
X481000Y146000
X481000Y156000
X471000Y156000
X471000Y146000
X471000Y166000
X481000Y166000
X481000Y176000
X481000Y186000
X471000Y186000
X471000Y176000
X471000Y196000
X471000Y206000
X481000Y206000
X481000Y196000
X481000Y216000
X481000Y226000
X471000Y226000
X471000Y216000
X471000Y236000
X471000Y246000
X481000Y246000
X481000Y236000
X481000Y256000
X471000Y256000
X471000Y266000
X471000Y276000
X481000Y276000
X481000Y266000
X481000Y286000
X481000Y296000
X471000Y296000
X471000Y286000
X471000Y306000
X471000Y316000
X481000Y316000
X481000Y306000
X481000Y326000
X481000Y336000
X471000Y336000
X471000Y326000
X551000Y326000
X561000Y326000
X561000Y336000
X551000Y336000
X551000Y316000
X561000Y316000
X561000Y306000
X551000Y306000
X551000Y296000
X561000Y296000
X561000Y286000
X551000Y286000
X551000Y276000
X561000Y276000
X561000Y266000
X551000Y266000
X551000Y256000
X561000Y256000
X561000Y246000
X551000Y246000
X551000Y236000
X561000Y236000
X561000Y226000
X551000Y226000
X551000Y216000
X561000Y216000
X561000Y206000
X551000Y206000
X551000Y196000
X561000Y196000
X561000Y186000
X551000Y186000
X551000Y176000
X561000Y176000
X561000Y166000
X551000Y166000
X551000Y156000
X561000Y156000
X561000Y146000
X551000Y146000
X551000Y136000
X561000Y136000
X561000Y126000
X551000Y126000
X551000Y116000
X561000Y116000
X561000Y106000
X551000Y106000
X551000Y96000
X561000Y96000
X631000Y96000
X641000Y96000
X641000Y106000
X631000Y106000
X631000Y116000
X641000Y116000
X641000Y126000
X631000Y126000
X631000Y136000
X641000Y136000
X641000Y146000
X631000Y146000
X631000Y156000
X641000Y156000
X641000Y166000
X631000Y166000
X631000Y176000
X641000Y176000
X641000Y186000
X631000Y186000
X631000Y196000
X641000Y196000
X641000Y206000
X631000Y206000
X631000Y216000
X641000Y216000
X641000Y226000
X631000Y226000
X631000Y236000
X641000Y236000
X641000Y246000
X631000Y246000
X631000Y256000
X641000Y256000
X641000Y266000
X631000Y266000
X631000Y276000
X641000Y276000
X641000Y286000
X631000Y286000
X631000Y296000
X641000Y296000
X641000Y306000
X631000Y306000
X631000Y316000
X641000Y316000
X641000Y326000
X631000Y326000
X631000Y336000
X641000Y336000
T04
X662575Y17378
X609425Y17378
X582575Y17378
X529425Y17378
X502575Y17378
X449425Y17378
X422575Y17378
X369425Y17378
X342575Y17378
X289425Y17378
X262575Y17378
X209425Y17378
X182575Y17378
X129425Y17378
X102575Y17378
X49425Y17378
X17378Y214425
X17378Y267575
T05
X41000Y255173
X41000Y226827
X61827Y41000
X90173Y41000
X141827Y41000
X170173Y41000
X221827Y41000
X250173Y41000
X301827Y41000
X330173Y41000
X381827Y41000
X410173Y41000
X461827Y41000
X490173Y41000
X541827Y41000
X570173Y41000
X621827Y41000
X650173Y41000
T06
X20409Y321000
T07
X20685Y20685
X20685Y375016
X689976Y375016
X689976Y20685
M30
